<svg width="20" height="20" viewBox="0 0 20 20" fill="none" xmlns="http://www.w3.org/2000/svg">
<path d="M10.7979 2C11.0164 2 11.2286 2.07606 11.3971 2.21507C12.1421 2.82939 13.8267 4.53671 14.8677 6.6829C15.3944 7.76868 15.8507 9.23012 16.1591 10.6517C16.4657 12.065 16.6469 13.5349 16.5709 14.6324C16.5367 15.1256 16.1268 15.5081 15.6324 15.5083H10.9339V17.0588C10.9339 17.5786 10.5124 17.9999 9.99273 18H4.35303C4.02113 18 3.71386 17.8248 3.5442 17.5395C3.3747 17.2543 3.36743 16.9009 3.52582 16.6094L9.05156 6.43842V2.94118C9.05156 2.42138 9.47294 2 9.99273 2H10.7979ZM5.93575 16.1176H9.05156V10.3824L5.93575 16.1176ZM10.9339 13.6259H14.6903C14.6497 12.8824 14.5223 11.9834 14.3199 11.0506C14.0309 9.71805 13.6138 8.41183 13.1738 7.5046C12.5487 6.21584 11.6317 5.09296 10.9339 4.36581V13.6259Z" fill="black"/>
</svg>
