<?xml version="1.0" encoding="UTF-8"?>
<svg id="Layer_1" xmlns="http://www.w3.org/2000/svg" version="1.1" viewBox="0 0 393.93 140.22">
  <!-- Generator: Adobe Illustrator 30.3.0, SVG Export Plug-In . SVG Version: 2.1.3 Build 182)  -->
  <defs>
    <style>
      .st0 {
        fill: #08ff00;
      }

      .st1 {
        fill: #fff;
      }
    </style>
  </defs>
  <path class="st0" d="M386.03,2.3h-176.75c-1.85,0-3.45,1.28-3.85,3.08l-3.54,15.77c-.55,2.47,1.32,4.81,3.85,4.81h176.75c1.85,0,3.45-1.28,3.85-3.08l3.54-15.77c.55-2.47-1.32-4.81-3.85-4.81Z"/>
  <g>
    <path class="st1" d="M70.97,42.43l-19.66,19.44c-3.23,3.19-8.67.46-8.04-4.04l7.05-50.13c.4-2.86-1.82-5.41-4.7-5.41h-19.1c-2.37,0-4.37,1.74-4.7,4.09L4.54,129.31c-.4,2.86,1.82,5.41,4.7,5.41h19.1c2.37,0,4.37-1.74,4.7-4.09l3-21.31c.14-1.02.62-1.97,1.34-2.7l6.81-6.81c2.28-2.28,6.12-1.67,7.58,1.2l15.85,31.1c.81,1.59,2.44,2.59,4.23,2.59h20.93c3.58,0,5.87-3.81,4.19-6.97l-25.3-47.64c-1.04-1.95-.59-4.36,1.08-5.81l28.75-24.91c3.32-2.88,1.29-8.33-3.11-8.33h-24.08c-1.25,0-2.45.49-3.34,1.37Z"/>
    <path class="st1" d="M180.56,40.58c-2.92-1.08-6.21-1.62-9.88-1.62-4.18,0-8.36,1.14-12.54,3.43-4.18,2.28-7.79,5.45-10.83,9.5-.68.91-1.46,2.48-1.46,2.48-.12.25-.21.22-.19-.05l.55-8.2c.18-2.74-1.99-5.06-4.74-5.06h-17.78c-2.36,0-4.37,1.74-4.7,4.08l-11.95,84.17c-.41,2.86,1.81,5.41,4.7,5.41h19.11c2.36,0,4.36-1.73,4.7-4.07l4.66-32.48c.04-.27.11-.72.16-.99,0,0,1.84-9.77,3.42-14.33s3.9-8.26,6.94-11.11c3.04-2.85,7.03-4.27,11.97-4.27,1.9,0,3.9.29,5.98.86,2.09.56,4.41,1.93,4.41,1.93.24.14.55.06.7-.17l15.61-24.24c.15-.23.08-.54-.16-.68,0,0-5.78-3.51-8.69-4.59Z"/>
    <path class="st1" d="M256.18,44.38c-6.4-3.61-13.9-5.42-22.51-5.42-7.73,0-14.89,1.43-21.47,4.27-6.59,2.85-12.32,6.82-17.2,11.87-4.87,5.07-8.67,10.9-11.4,17.48-2.73,6.59-4.09,13.62-4.09,21.09,0,8.49,1.81,15.99,5.42,22.51,3.61,6.53,8.61,11.59,15.01,15.2,6.39,3.61,13.84,5.42,22.32,5.42,7.6,0,14.69-1.46,21.28-4.37,6.59-2.92,12.32-6.91,17.2-11.97,4.87-5.06,8.71-10.92,11.49-17.57,2.79-6.65,4.18-13.71,4.18-21.19,0-8.48-1.78-15.92-5.32-22.32-3.55-6.39-8.52-11.4-14.92-15.01ZM246.4,93.68c-1.01,3.29-2.5,6.3-4.46,9.02-1.97,2.73-4.37,4.91-7.22,6.56-2.85,1.65-6.11,2.47-9.79,2.47-5.83,0-10.1-2.06-12.82-6.17-2.72-4.12-4.08-8.77-4.08-13.97,0-3.3.5-6.56,1.52-9.78,1.01-3.23,2.47-6.21,4.37-8.93,1.9-2.73,4.31-4.88,7.22-6.47,2.91-1.58,6.27-2.37,10.07-2.37,5.96,0,10.23,1.99,12.82,5.98,2.6,3.99,3.9,8.59,3.9,13.77,0,3.3-.51,6.59-1.52,9.88Z"/>
    <path class="st1" d="M375.52,59.39c-3.55-6.39-8.52-11.4-14.92-15.01-6.4-3.61-13.9-5.42-22.51-5.42-7.73,0-14.89,1.43-21.47,4.27-6.59,2.85-12.32,6.82-17.2,11.87-4.87,5.07-8.67,10.9-11.4,17.48-2.73,6.59-4.09,13.62-4.09,21.09,0,8.49,1.81,15.99,5.42,22.51,3.61,6.53,8.61,11.59,15.01,15.2,6.39,3.61,13.84,5.42,22.32,5.42,7.6,0,14.69-1.46,21.28-4.37,6.59-2.92,12.32-6.91,17.2-11.97,4.87-5.06,8.71-10.92,11.49-17.57,2.79-6.65,4.18-13.71,4.18-21.19,0-8.48-1.78-15.92-5.32-22.32ZM350.82,93.68c-1.01,3.29-2.5,6.3-4.46,9.02-1.97,2.73-4.37,4.91-7.22,6.56-2.85,1.65-6.11,2.47-9.79,2.47-5.83,0-10.1-2.06-12.82-6.17-2.72-4.12-4.08-8.77-4.08-13.97,0-3.3.5-6.56,1.52-9.78,1.01-3.23,2.47-6.21,4.37-8.93,1.9-2.73,4.31-4.88,7.22-6.47,2.91-1.58,6.27-2.37,10.07-2.37,5.96,0,10.23,1.99,12.82,5.98,2.6,3.99,3.9,8.59,3.9,13.77,0,3.3-.51,6.59-1.52,9.88Z"/>
  </g>
</svg>